  0
SECTION
  2
HEADER
  9
$ACADVER
  1
AC1009
  9
$ANGDIR
  70
0
  9
$CECOLOR
  62
256
  9
$CELTYPE
  6
BYLAYER
  9
$EXTMIN
  10
-1.9
  20
-1.9
  9
$EXTMAX
  10
1.9
  20
1.9
  9
$FILLMODE
  70
1
  9
$MIRRTEXT
  70
0
  0
ENDSEC
  0
SECTION
  2
TABLES
  0
TABLE
  2
LAYER
  70
17
  0
LAYER
  2
Top_Assy
  70
64
  62
1
  6
CONTINUOUS
  0
ENDTAB
  0
ENDSEC
  0
SECTION
  2
ENTITIES
  0
POLYLINE
  8
Top_Assy
  6
CONTINUOUS
  66
1
  70
0
  40
0.0333
  41
0.0333
  0
VERTEX
  8
Top_Assy
  10
1.15
  20
0.0
  42
0
  0
VERTEX
  8
Top_Assy
  10
1.1249
  20
0.2391
  42
0
  0
VERTEX
  8
Top_Assy
  10
1.0506
  20
0.4677
  42
0
  0
VERTEX
  8
Top_Assy
  10
0.9304
  20
0.676
  42
0
  0
VERTEX
  8
Top_Assy
  10
0.7695
  20
0.8546
  42
0
  0
VERTEX
  8
Top_Assy
  10
0.575
  20
0.9959
  42
0
  0
VERTEX
  8
Top_Assy
  10
0.3554
  20
1.0937
  42
0
  0
VERTEX
  8
Top_Assy
  10
0.1202
  20
1.1437
  42
0
  0
VERTEX
  8
Top_Assy
  10
-0.1202
  20
1.1437
  42
0
  0
VERTEX
  8
Top_Assy
  10
-0.3554
  20
1.0937
  42
0
  0
VERTEX
  8
Top_Assy
  10
-0.575
  20
0.9959
  42
0
  0
VERTEX
  8
Top_Assy
  10
-0.7695
  20
0.8546
  42
0
  0
VERTEX
  8
Top_Assy
  10
-0.9304
  20
0.676
  42
0
  0
VERTEX
  8
Top_Assy
  10
-1.0506
  20
0.4677
  42
0
  0
VERTEX
  8
Top_Assy
  10
-1.1249
  20
0.2391
  42
0
  0
VERTEX
  8
Top_Assy
  10
-1.15
  20
0.0
  42
0
  0
VERTEX
  8
Top_Assy
  10
-1.1249
  20
-0.2391
  42
0
  0
VERTEX
  8
Top_Assy
  10
-1.0506
  20
-0.4677
  42
0
  0
VERTEX
  8
Top_Assy
  10
-0.9304
  20
-0.676
  42
0
  0
VERTEX
  8
Top_Assy
  10
-0.7695
  20
-0.8546
  42
0
  0
VERTEX
  8
Top_Assy
  10
-0.575
  20
-0.9959
  42
0
  0
VERTEX
  8
Top_Assy
  10
-0.3554
  20
-1.0937
  42
0
  0
VERTEX
  8
Top_Assy
  10
-0.1202
  20
-1.1437
  42
0
  0
VERTEX
  8
Top_Assy
  10
0.1202
  20
-1.1437
  42
0
  0
VERTEX
  8
Top_Assy
  10
0.3554
  20
-1.0937
  42
0
  0
VERTEX
  8
Top_Assy
  10
0.575
  20
-0.9959
  42
0
  0
VERTEX
  8
Top_Assy
  10
0.7695
  20
-0.8546
  42
0
  0
VERTEX
  8
Top_Assy
  10
0.9304
  20
-0.676
  42
0
  0
VERTEX
  8
Top_Assy
  10
1.0506
  20
-0.4677
  42
0
  0
VERTEX
  8
Top_Assy
  10
1.1249
  20
-0.2391
  42
0
  0
VERTEX
  8
Top_Assy
  10
1.15
  20
0.0
  42
0
  0
SEQEND
  0
POLYLINE
  8
Top_Assy
  6
CONTINUOUS
  66
1
  70
0
  40
0.0333
  41
0.0333
  0
VERTEX
  8
Top_Assy
  10
1.9
  20
0.0
  42
0
  0
VERTEX
  8
Top_Assy
  10
1.8585
  20
0.395
  42
0
  0
VERTEX
  8
Top_Assy
  10
1.7357
  20
0.7728
  42
0
  0
VERTEX
  8
Top_Assy
  10
1.5371
  20
1.1168
  42
0
  0
VERTEX
  8
Top_Assy
  10
1.2713
  20
1.412
  42
0
  0
VERTEX
  8
Top_Assy
  10
0.95
  20
1.6454
  42
0
  0
VERTEX
  8
Top_Assy
  10
0.5871
  20
1.807
  42
0
  0
VERTEX
  8
Top_Assy
  10
0.1986
  20
1.8896
  42
0
  0
VERTEX
  8
Top_Assy
  10
-0.1986
  20
1.8896
  42
0
  0
VERTEX
  8
Top_Assy
  10
-0.5871
  20
1.807
  42
0
  0
VERTEX
  8
Top_Assy
  10
-0.95
  20
1.6454
  42
0
  0
VERTEX
  8
Top_Assy
  10
-1.2713
  20
1.412
  42
0
  0
VERTEX
  8
Top_Assy
  10
-1.5371
  20
1.1168
  42
0
  0
VERTEX
  8
Top_Assy
  10
-1.7357
  20
0.7728
  42
0
  0
VERTEX
  8
Top_Assy
  10
-1.8585
  20
0.395
  42
0
  0
VERTEX
  8
Top_Assy
  10
-1.9
  20
0.0
  42
0
  0
VERTEX
  8
Top_Assy
  10
-1.8585
  20
-0.395
  42
0
  0
VERTEX
  8
Top_Assy
  10
-1.7357
  20
-0.7728
  42
0
  0
VERTEX
  8
Top_Assy
  10
-1.5371
  20
-1.1168
  42
0
  0
VERTEX
  8
Top_Assy
  10
-1.2713
  20
-1.412
  42
0
  0
VERTEX
  8
Top_Assy
  10
-0.95
  20
-1.6454
  42
0
  0
VERTEX
  8
Top_Assy
  10
-0.5871
  20
-1.807
  42
0
  0
VERTEX
  8
Top_Assy
  10
-0.1986
  20
-1.8896
  42
0
  0
VERTEX
  8
Top_Assy
  10
0.1986
  20
-1.8896
  42
0
  0
VERTEX
  8
Top_Assy
  10
0.5871
  20
-1.807
  42
0
  0
VERTEX
  8
Top_Assy
  10
0.95
  20
-1.6454
  42
0
  0
VERTEX
  8
Top_Assy
  10
1.2713
  20
-1.412
  42
0
  0
VERTEX
  8
Top_Assy
  10
1.5371
  20
-1.1168
  42
0
  0
VERTEX
  8
Top_Assy
  10
1.7357
  20
-0.7728
  42
0
  0
VERTEX
  8
Top_Assy
  10
1.8585
  20
-0.395
  42
0
  0
VERTEX
  8
Top_Assy
  10
1.9
  20
0.0
  42
0
  0
SEQEND
  0
ENDSEC
  0
EOF
